<?xml version="1.0" encoding="utf-8"?>
<!-- Generator: Adobe Illustrator 28.0.0, SVG Export Plug-In . SVG Version: 6.00 Build 0)  -->
<svg version="1.1" id="Calque_1" xmlns="http://www.w3.org/2000/svg" xmlns:xlink="http://www.w3.org/1999/xlink" x="0px" y="0px"
	 viewBox="0 0 726.3 800" style="enable-background:new 0 0 726.3 800;" xml:space="preserve">
<style type="text/css">
	.st0{fill:#FFFFFF;}
</style>
<g id="c133de6af664cd4f011a55de6b001b19">
	<path class="st0" d="M718,0.8l-66.5,720.8l-288.3,77.6L74.8,721.6L8.3,0.8H718z M583.9,147.3h-221H138l10.8,87h214.2h12l-12,5
		l-206.4,85.9l6.8,85.1l199.5,0.6l106.9,0.3L463,524.9L362.9,553V553l-0.8,0.2l-96.7-24.4l-5.9-70.4h-0.3h-89.7h-0.3L181,594.3
		l181.9,53.8V648l0.3,0.1l180.9-52.8l23.5-269.9H362.9h-0.5l0.5-0.2l212.2-90.7L583.9,147.3z"/>
</g>
</svg>
