<?xml version="1.0" encoding="utf-8"?>
<!-- Generator: Adobe Illustrator 28.0.0, SVG Export Plug-In . SVG Version: 6.00 Build 0)  -->
<svg version="1.1" id="Calque_1" xmlns="http://www.w3.org/2000/svg" xmlns:xlink="http://www.w3.org/1999/xlink" x="0px" y="0px"
	 viewBox="0 0 691.8 800" style="enable-background:new 0 0 691.8 800;" xml:space="preserve">
<style type="text/css">
	.st0{fill:none;}
	.st1{fill-rule:evenodd;clip-rule:evenodd;fill:#FFFFFF;}
</style>
<g>
	<path class="st0" d="M-66.6,0h800v800h-800V0z"/>
	<path class="st1" d="M38.2,406.7c1,51.6,7.2,99.5,18.6,143.7c11.4,44.2,29,82.7,52.9,115.5c23.8,32.8,54.6,58.6,92.4,77.5
		c37.8,18.9,83.9,28.3,138.5,28.3c80.5,0,147.3-21.1,200.4-63.3c53.1-42.2,86.2-105.5,99-189.9h29.8
		C658.9,607.8,623.6,677,564,726.2C504.4,775.3,430.9,800,343.5,800c-59.6,1-110.5-8.4-152.7-28.3c-42.2-19.9-76.8-47.9-103.6-84.2
		c-26.8-36.2-46.7-79-59.6-128.1c-12.9-49.2-19.4-102-19.4-158.7c0-63.6,9.4-120.2,28.3-169.8s43.7-91.6,74.5-125.9
		c30.7-34.2,66.5-60.2,107.2-78.1S300.8,0,343.5,0c59.6,0,111,11.4,154.2,34.2c43.2,22.8,78.5,53.1,105.8,90.9
		c27.3,37.8,47.2,80.9,59.6,129.6c12.4,48.6,17.6,99.2,15.6,151.9L38.2,406.7L38.2,406.7z M648.9,376.9c0-46.7-6.5-91.1-19.4-133.3
		c-12.9-42.2-32-79.2-57.3-111c-25.3-31.8-56.9-56.8-94.6-75.2s-81.4-27.5-131.1-27.5c-41.8,0-80.7,7.9-116.9,23.8s-68,39-95.3,69.3
		c-27.3,30.3-49.4,66.8-66.3,109.5c-16.9,42.7-26.8,90.9-29.8,144.5L648.9,376.9L648.9,376.9z"/>
</g>
</svg>
