<?xml version="1.0" encoding="utf-8"?>
<!-- Generator: Adobe Illustrator 28.0.0, SVG Export Plug-In . SVG Version: 6.00 Build 0)  -->
<svg version="1.1" id="Calque_1" xmlns="http://www.w3.org/2000/svg" xmlns:xlink="http://www.w3.org/1999/xlink" x="0px" y="0px"
	 viewBox="0 0 482.2 670.2" style="enable-background:new 0 0 482.2 670.2;" xml:space="preserve">
<style type="text/css">
	.st0{fill:none;stroke:#FFFFFF;stroke-width:66.6667;stroke-linecap:round;stroke-linejoin:round;stroke-miterlimit:133.3333;}
</style>
<path class="st0" d="M241.1,35.1h-100c-55.2,0-100,44.8-100,100s44.8,100,100,100 M241.1,35.1v200 M241.1,35.1h100
	c55.2,0,100,44.8,100,100s-44.8,100-100,100 M241.1,235.1h-100 M241.1,235.1h100 M241.1,235.1v200 M141.1,235.1
	c-55.2,0-100,44.8-100,100s44.8,100,100,100 M341.1,235.1c55.2,0,100,44.8,100,100s-44.8,100-100,100s-100-44.8-100-100
	S285.9,235.1,341.1,235.1z M241.1,435.1h-100 M241.1,435.1v100c0,55.2-44.8,100-100,100c-55.2,0-100-44.8-100-100
	c0-55.2,44.8-100,100-100"/>
</svg>
