<?xml version="1.0" encoding="utf-8"?>
<!-- Generator: Adobe Illustrator 28.0.0, SVG Export Plug-In . SVG Version: 6.00 Build 0)  -->
<svg version="1.1" id="Calque_1" xmlns="http://www.w3.org/2000/svg" xmlns:xlink="http://www.w3.org/1999/xlink" x="0px" y="0px"
	 viewBox="0 0 800 800" style="enable-background:new 0 0 800 800;" xml:space="preserve">
<style type="text/css">
	.st0{fill:#FFFFFF;}
</style>
<path class="st0" d="M471,1.6c-5.8,0-11.1,1.2-16.1,2.9c10.5,7,16.3,16.3,19.2,26.9c0.2,1.4,0.6,2.5,0.8,3.9
	c0.2,1.2,0.4,2.5,0.4,3.7c0.8,18.2-4.8,20.5-8.7,31.2c-6,13.8-4.3,28.7,2.9,40.7c0.7,1.6,1.5,3.1,2.5,4.6
	c-7.8-52.3,35.8-60.1,43.8-76.4c0.6-14.3-11.1-23.8-20.4-30.4C488.1,4,479.7,1.6,471,1.6L471,1.6z M536.7,13.3
	c-0.8,4.8-0.2,3.5-0.4,6c-0.2,1.7-0.2,3.7-0.4,5.4c-0.4,1.7-0.8,3.3-1.5,5c-0.4,1.7-1,3.3-1.7,5l-2.2,4.7c-0.7,0.8-1,1.7-1.7,2.5
	l-1.2,1.8c-1,1.4-2,2.8-3.1,4.1c-1.2,1.3-2.3,2.7-3.7,3.7v0.2c-1.2,1-2.5,2.3-3.9,3.3c-4.3,3.3-9.3,5.8-13.8,8.9
	c-1.4,1-2.9,1.9-4.1,3.1c-1.4,1-2.7,2.1-3.9,3.3c-1.4,1.2-2.5,2.5-3.7,3.9c-1,1.2-2.3,2.7-3.1,4.1c-1,1.4-2,2.8-2.9,4.3
	c-0.8,1.7-1.4,3.1-2.3,4.7c-0.6,1.7-1.2,3.1-1.7,4.8c-0.5,1.7-1,3.4-1.4,5.2c-0.2,0.8-0.2,1.9-0.4,2.7c-0.2,0.8-0.2,1.7-0.4,2.5
	c0,1.7-0.2,3.5-0.2,5.2c0,1.2,0,2.5,0.2,3.7c0,1.7,0.2,3.3,0.6,5.2c0.2,1.7,0.6,3.3,1,5c0.7,1.6,1.1,3.3,1.7,4.9
	c0.4,1,1,2.1,1.5,2.9l-47.5-18.4c-8-2.3-15.9-4.3-24-6.2l-13-3.1c-12.4-2.5-25-4.3-37.6-5.6c-0.4,0-0.6-0.2-1-0.2
	c-21.3-2.1-42.7-2.4-64.1-0.8c-12.6,0.8-25.2,2.5-37.8,4.5c-9.4,1.6-18.7,3.5-27.9,5.8l-9.3,2.5c-3.1,1.2-6,2.7-8.9,3.9L206,115
	c-0.4,0.2-0.8,0.2-1,0.4c-2.1,1-3.9,1.9-5.8,2.9c-2.7,1.2-5.3,2.5-7.9,3.9c-1.4,0.6-2.9,1.4-4.1,2.1c-0.6,0.4-1.2,0.7-1.8,1
	c-1.9,1.1-3.7,2.1-5.4,3.1c-1.7,0.9-3.3,2-4.9,3.1c-1.5,1-2.9,1.8-4.1,2.9c-0.2,0.2-0.4,0.2-0.6,0.4c-1.2,0.8-2.7,1.9-3.9,2.9
	l-0.4,0.4l-3.1,2.5c-0.4,0.2-0.8,0.6-1.2,0.8c-1,0.8-2.1,1.9-3.1,2.7c-0.2,0.4-0.6,0.7-0.8,0.8c-1.2,1.3-2.5,2.3-3.7,3.5
	c-0.2,0-0.2,0.2-0.4,0.4c-1.3,1.1-2.5,2.3-3.7,3.5c-0.2,0.2-0.2,0.4-0.4,0.4c-1.1,1.1-2.1,2.2-3.1,3.3c-0.4,0.4-1,0.8-1.4,1.2
	c-1.1,1.3-2.3,2.6-3.5,3.7c-0.2,0.4-0.6,0.6-0.8,1c-1.7,1.7-3.1,3.3-4.8,5l-0.6,0.6c-3.3,3.5-6.8,7-10.6,10.1
	c-3.7,3.3-7.6,6.4-11.6,9.1c-7.9,5.6-16.4,10.4-25.4,14c-4.3,1.9-8.9,3.5-13.4,5c-8.7,1.9-17.6,5.4-25.2,6c-1.7,0-3.5,0.4-5.2,0.6
	l-5.2,1.2l-5,1.9c-1.7,0.6-3.3,1.5-4.9,2.3c-1.5,1-3.1,1.9-4.6,2.9c-1.5,1.1-2.9,2.2-4.1,3.5c-1.4,1-2.9,2.5-4.1,3.7
	c-1.2,1.4-2.5,2.7-3.5,4.1c-1,1.7-2.3,3.1-3.1,4.8c-1.1,1.5-2.1,3.1-2.9,4.7c-0.8,1.9-1.7,3.5-2.3,5.4c-0.6,1.7-1.2,3.5-1.9,5.4
	c-0.4,1.7-0.8,3.3-1,5c0,0.2-0.2,0.4-0.2,0.6c-0.4,1.9-0.4,4.3-0.6,5.6C0.2,265,0,266.2,0,267.7c0,3.6,0.8,7.1,2.5,10.3v0.2
	c0.6,1.2,1.5,2.5,2.3,3.7c0.8,1.2,1.7,2.5,2.7,3.7c1,1,2.3,2.3,3.5,3.3c1.2,1.2,2.5,2.3,3.9,3.3c5,4.3,6.2,5.8,12.6,9.1
	c1,0.6,2.1,1,3.3,1.7c0.2,0,0.4,0.2,0.6,0.2c0,0.4,0,0.6,0.2,1c0.5,3.4,1.4,6.7,2.7,9.9c0.7,1.2,1.1,2.5,1.7,3.7
	c0.2,0.4,0.4,0.8,0.7,1c0.8,1.7,1.6,3.1,2.4,4.6l3.1,4.3c1,1.2,2.3,2.7,3.5,3.9c1.2,1.2,2.5,2.3,3.9,3.5c0,0,0.2,0.2,0.4,0.2
	c1.2,1,2.5,2.1,3.7,2.9c1.4,1,3,1.9,4.5,2.7c1.4,0.8,3.1,1.7,4.7,2.3c1.3,0.6,2.7,1.1,4.1,1.4c0.2,0.2,0.4,0.2,0.8,0.4
	c0.8,0.2,1.9,0.4,2.7,0.6c-0.6,11.2-0.8,21.7,0.9,25.4c1.8,4.1,10.9-8.5,20-22.9c-1.2,14.3-2,31,0,36c2.3,5.2,14.7-11,25.4-28.7
	c146.5-33.9,280.2,67.3,294.2,210.3c-2.7-22.3-30.2-34.7-42.8-31.6c-6.2,15.3-16.7,34.9-33.7,47.1c1.4-13.7,0.8-27.7-2.1-41.3
	c-4.6,19-13.4,36.8-25.6,52.1c-19.6,1.4-39.2-8.1-49.6-22.3c-0.8-0.6-1-1.8-1.7-2.7c-0.6-1.4-1.2-2.9-1.7-4.3
	c-0.6-1.4-1-2.8-1.2-4.3c-0.2-1.5-0.2-2.9-0.2-4.6v-3.1c0.2-1.5,0.6-2.9,1-4.3c0.4-1.4,0.8-2.9,1.5-4.3c0.8-1.4,1.4-2.9,2.5-4.3
	c3.5-9.9,3.5-18-2.9-22.7c-1.2-0.8-2.6-1.5-3.9-2.1c-0.8-0.2-1.8-0.6-2.7-0.8l-1.7-0.6c-1.4-0.5-2.9-0.8-4.3-1
	c-1.4-0.4-2.9-0.6-4.3-0.6c-1.5-0.2-3-0.4-4.5-0.4c-1,0-2.1,0.2-3.1,0.2c-1.5,0-3.1,0.2-4.6,0.6c-1.4,0.2-2.9,0.4-4.3,0.8
	c-1.5,0.4-2.9,0.9-4.3,1.5c-1.4,0.6-2.7,1.2-4.1,1.9c-1.2,0.6-2.5,1.4-3.9,2.1c-48.1,31.4-19.4,104.9,13.4,126.2
	c-12.4,2.3-25,4.9-28.5,7.6l-0.4,0.4c8.9,5.4,18.2,9.9,27.9,13.9c13.2,4.3,27.3,8.2,33.5,9.9v0.2c17.1,3.5,34.6,4.8,52.1,3.7
	c91.5-6.4,166.5-76,180.2-167.8l1.2,5.4c0.6,3.7,1.4,7.7,1.9,11.6v0.2c0.4,1.9,0.6,3.7,0.8,5.4v0.8c0.2,1.9,0.4,3.7,0.4,5.4
	c0.2,2.3,0.4,4.5,0.4,6.8v3.3c0,1,0.2,2.2,0.2,3.3c0,1.3-0.2,2.5-0.2,3.7v2.9c0,1.4-0.2,2.7-0.2,4.1c0,0.8,0,1.7-0.2,2.7
	c0,1.5-0.2,2.9-0.2,4.6c-0.2,0.6-0.2,1.2-0.2,1.8l-0.7,4.8c0,0.6,0,1.2-0.2,1.9c-0.2,2.1-0.6,3.9-0.8,6v0.4l-1.2,5.8v0.6l-1.2,5.6
	c0,0.2-0.2,0.7-0.2,0.8c-0.4,1.9-0.9,3.8-1.4,5.6v0.6c-0.6,2.1-1.2,3.9-1.7,5.8c-0.2,0.2-0.2,0.4-0.2,0.4l-1.9,6.2
	c-0.8,2.1-1.4,3.9-2.3,6c-0.8,2.1-1.4,4.1-2.3,6c-0.8,2.1-1.7,3.9-2.5,6h-0.2c-0.8,1.8-1.7,3.9-2.7,5.8c-0.2,0.5-0.4,1-0.6,1.4
	c-0.2,0.2-0.2,0.4-0.4,0.6c-13.7,27.4-33.6,51.1-58.1,69.4c-1.7,1-3.3,2.3-5,3.5c-0.4,0.4-1,0.6-1.4,1c-1.5,1.1-3,2.1-4.5,3.1
	l0.6,1.2h0.2l8.7-1.2h0.2c5.4-0.8,10.7-1.9,16.1-2.9c1.5-0.2,3.1-0.6,4.6-1l2.9-0.6c1.4-0.2,2.9-0.6,4.3-0.8c1.2-0.4,2.5-0.7,3.7-1
	c20.7-5,40.7-11.8,59.9-19.8c-33.2,45.2-77.4,81.3-128.3,104.7c23.8-1.7,47.5-5.6,70.5-12.2c83-24.4,153.1-80.4,195.2-156
	c-8.5,47.8-27.5,93.2-55.6,132.9c20-13.2,38.5-28.6,55.2-45.9c46.2-48.3,76.6-109.6,87-175.6c7,32.7,9.1,66.3,6,99.6
	c149.1-208,12.4-423.7-44.9-480.5c-0.2-0.4-0.4-0.6-0.4-1c-0.2,0.2-0.2,0.2-0.2,0.4c0-0.2,0-0.2-0.2-0.4c0,2.5-0.2,4.9-0.4,7.4
	c-0.6,4.6-1.3,9.2-2.1,13.8c-1,4.5-2.3,9.1-3.5,13.7c-1.5,4.3-3.1,8.9-5,13.2c-1.9,4.3-3.9,8.5-6.2,12.6
	c-4.6,8.1-9.9,15.8-15.9,22.9c-3.1,3.7-6.4,7-9.7,10.3c-1.9,1.8-3.9,3.5-6,5.2l-4.7,4.1c-3.7,2.9-7.6,5.6-11.6,8
	c-3.9,2.5-8,4.9-12.2,7c-4.3,2.1-8.7,3.9-13,5.8c-8.8,3.4-18,5.8-27.3,7.4c-4.8,0.8-9.5,1.2-14.1,1.7c-3.3,0.2-6.6,0.4-9.9,0.4
	c-4.7-0.1-9.4-0.3-14.1-0.8c-4.7-0.4-9.4-1.1-14-2.1c-4.7-0.9-9.3-2-13.8-3.5h-0.2c4.6-0.4,9.1-0.8,13.7-1.7
	c9.3-1.6,18.4-4.1,27.3-7.4c4.5-1.7,8.9-3.7,13-5.8c4.3-2.1,8.3-4.3,12.4-6.8c3.9-2.7,7.8-5.4,11.6-8.3c3.7-2.9,7.2-6,10.5-9.3
	c3.5-3.1,6.6-6.6,9.7-10.1c3.1-3.7,6-7.4,8.7-11.1c0.4-0.6,0.9-1.5,1.3-2.1c2.1-3.3,4.1-6.6,6-9.9c4.6-8.2,8.3-16.9,11.1-25.8
	c1.5-4.3,2.5-8.9,3.5-13.4c0.8-4.7,1.7-9.3,2.1-13.8c0.4-4.7,0.8-9.5,0.8-14c0-3.3-0.2-6.6-0.4-9.9c-0.4-4.6-1-9.2-1.7-13.8
	c-0.8-4.7-1.8-9.3-3.1-13.8c-1.5-4.3-2.9-8.9-4.6-13.2c-1.7-4.3-3.7-8.7-5.8-12.8c-2.3-4.1-4.6-8.3-7-12.2
	c-2.6-3.9-5.4-7.6-8.3-11.3c-3.1-3.5-6.2-7.1-9.5-10.6c-1.7-1.8-3.5-3.5-5.4-5.2c-9.3-7.2-19-14-28.7-20.2c-1.3-0.8-2.7-1.5-4.1-2.1
	C550.2,18.3,543.6,15.4,536.7,13.3L536.7,13.3z"/>
</svg>
