<?xml version="1.0" encoding="utf-8"?>
<!-- Generator: Adobe Illustrator 28.0.0, SVG Export Plug-In . SVG Version: 6.00 Build 0)  -->
<svg version="1.1" id="Calque_1" xmlns="http://www.w3.org/2000/svg" xmlns:xlink="http://www.w3.org/1999/xlink" x="0px" y="0px"
	 viewBox="0 0 800 800" style="enable-background:new 0 0 800 800;" xml:space="preserve">
<style type="text/css">
	.st0{fill:#FFFFFF;}
</style>
<path class="st0" d="M397.9,0.5c-33.4,0.1-66.8,4.3-99.2,12.6C142.7,51.9,18.9,193.2,3,353.5C-16.6,505.1,60,663,191.2,741.3
	c128.7,80.6,303.1,77.3,429.1-7.4C733.5,660.3,804,526.3,799.8,391c-1.9-133.9-77-263.9-192-332.7C545.1,19.7,471.4,0.2,397.9,0.5z
	 M395.8,57.1c164.8-0.2,326.3,127.1,342.7,297.5C770,543.2,613.4,735,422.2,740.6C240.4,758.7,64.7,604.6,59.6,422
	C46,274.2,143.4,127.5,282.8,78.7C318.8,64.4,357.1,57,395.8,57.1L395.8,57.1z M565.5,164.6c-89.6,69.5-175.3,143.6-263,215.2
	c40.1,0.6,80.4,0.5,120.7,0.3C470.2,308,518.5,236.8,565.5,164.6L565.5,164.6z M376.6,419.7c-47,72.2-95.3,143.6-142.3,215.8
	c89.8-69.3,175.2-144,263.4-215.2C457.3,419.8,417,419.6,376.6,419.7z"/>
</svg>
