<?xml version="1.0" encoding="utf-8"?>
<!-- Generator: Adobe Illustrator 28.0.0, SVG Export Plug-In . SVG Version: 6.00 Build 0)  -->
<svg version="1.1" id="Calque_1" xmlns="http://www.w3.org/2000/svg" xmlns:xlink="http://www.w3.org/1999/xlink" x="0px" y="0px"
	 viewBox="0 0 800 800" style="enable-background:new 0 0 800 800;" xml:space="preserve">
<style type="text/css">
	.st0{fill:#FFFFFF;}
</style>
<g id="_x32_069a460dcf28295e231f3111e03585e">
	<path class="st0" d="M355.6,340.6l30,93.9h-97.9l29.4-93.9c6.8-22.6,12.4-49.2,18.1-71.3h1.1C342,291.4,348.3,317.4,355.6,340.6z
		 M799.2,133.9v532.3c0,73.2-59.9,133.1-133.1,133.1H133.9c-73.2,0-133.1-59.9-133.1-133.1V133.9C0.8,60.7,60.7,0.8,133.9,0.8h532.3
		C739.3,0.8,799.2,60.7,799.2,133.9z M506.6,595.1L382.8,213.9H294L171.8,595.1h71.8l32.8-108h121l34.5,108H506.6z M624.2,319.7
		h-70.1v275.5h70.1V319.7z M628.2,242.8c-0.6-21.5-15.3-37.9-39-37.9c-23.2,0-39,16.4-39,37.9c0,20.9,15.3,37.3,38.5,37.3
		C612.9,280.1,628.2,263.7,628.2,242.8z"/>
</g>
</svg>
