<?xml version="1.0" encoding="UTF-8"?>
<svg id="Calque_1" data-name="Calque 1" xmlns="http://www.w3.org/2000/svg" viewBox="0 0 341.84 762.35">
  <defs>
    <style>
      .cls-1 {
        fill: #fff;
        stroke-width: 0px;
      }
    </style>
  </defs>
  <path class="cls-1" d="m340.5,338.13c-1.67-19.35-5.22-38.65-10.17-57.42-15.62-59.23-41.65-115.93-78.35-165.08-10-13.4-20.8-26.2-32.35-38.3-11.9-12.48-25.1-23.93-33.4-39.45-5.25-9.83-10.25-19.78-15.35-29.68-.08,3.1-.27,6.2-.27,9.28,0-3.1.23-6.2.27-9.3-.95-2.38-1.9-4.77-3.25-8.18-.55,1.88-.9,2.52-.9,3.22-.43,16.12-9.58,27.08-20.95,37.3-12.8,11.5-24.73,23.98-37.02,36.02.43.55.9,1.1,1.38,1.65-.48-.55-.95-1.08-1.38-1.65-36.58,48.1-68.8,99.52-87.77,157.25-5.52,16.8-9.88,33.98-12.93,51.4C1.58,322.22-1.42,358.2.65,395.7c1.15,20.73,4.77,41.13,10.17,61.2,19.62,72.92,59.47,133.4,113.95,184.8,10.12,9.55,21.05,18.23,31.63,27.33.03-.1.05-.17.08-.27-.03.1-.05.17-.08.27,1.55,5.35,3.12,10.7,4.68,16.05,1.45,8.3,2.9,16.6,4.35,24.9.7,8.65,1.38,17.33,2.08,25.97-.03,5.28-.25,10.58.08,15.82.08,1.35,1.85,2.6,2.82,3.9.03-.05.05-.1.1-.15-.03.05-.05.1-.1.15,2.95,1.03,5.88,2.08,8.83,3.1,2.65,1.03,5.3,2.08,9.18,3.57-.58-8.65-1.07-15.88-1.57-23.1-.02-7.57-.05-15.18-.08-22.75-.15.17-.35.35-.52.52l.52-.52c1.05-11.55,2.12-23.1,3.18-34.65.78-2.52,1.53-5.03,2.3-7.55,2.2-3.9,4.37-7.78,6.58-11.68,8.13-6.55,16.85-12.48,24.28-19.75,13.4-13.18,26.77-26.5,38.75-40.92,15.55-18.7,28.95-39.13,39.7-61.02,30.57-62.27,44.72-131.73,39.1-200.97-.05-.6-.1-1.22-.15-1.85l.03.03Z"/>
</svg>