<?xml version="1.0" encoding="utf-8"?>
<!-- Generator: Adobe Illustrator 28.0.0, SVG Export Plug-In . SVG Version: 6.00 Build 0)  -->
<svg version="1.1" id="Calque_1" xmlns="http://www.w3.org/2000/svg" xmlns:xlink="http://www.w3.org/1999/xlink" x="0px" y="0px"
	 viewBox="0 0 708.1 800" style="enable-background:new 0 0 708.1 800;" xml:space="preserve">
<style type="text/css">
	.st0{fill:#FFFFFF;}
</style>
<g id="_x35_151e0c8492e5103c096af88a51f17e3">
	<path class="st0" d="M708.1,231v337.7c0,21.9-11.8,42.3-30.7,53.3L384.8,791c-9.4,5.4-20,8.2-30.8,8.2c-10.7,0-21.3-2.8-30.7-8.2
		l-97.7-57.8c-14.6-8.1-7.5-11-2.6-12.7c19.5-6.8,23.4-8.3,44.2-20.1c2.2-1.2,5-0.8,7.3,0.5l75,44.6c2.7,1.5,6.6,1.5,9.1,0
		l292.6-168.9c2.7-1.6,4.5-4.7,4.5-7.9V231c0-3.3-1.7-6.4-4.5-8.1L358.5,54.2c-2.7-1.6-6.3-1.6-9,0L57.1,223c-2.8,1.6-4.6,4.8-4.6,8
		v337.7c0,3.2,1.8,6.3,4.6,7.8l80.2,46.3c43.5,21.7,70.1-3.9,70.1-29.6V259.9c0-4.7,3.8-8.4,8.5-8.4H253c4.6,0,8.5,3.7,8.5,8.4
		v333.4c0,58-31.6,91.3-86.6,91.3c-16.9,0-30.2,0-67.4-18.3l-76.7-44.2C11.7,611.1,0,590.6,0,568.7V231c0-21.9,11.7-42.4,30.7-53.3
		L323.3,8.6c18.5-10.5,43.1-10.5,61.5,0l292.6,169.1C696.3,188.7,708.1,209.1,708.1,231z M455.9,536.5c-87.3,0-106.5-22-113-65.4
		c-0.7-4.6-4.7-8.1-9.5-8.1h-42.7c-5.3,0-9.5,4.2-9.5,9.5c0,55.6,30.2,121.8,174.6,121.8c104.5,0,164.5-41.2,164.5-113
		c0-71.3-48.2-90.2-149.5-103.7c-102.5-13.6-112.9-20.5-112.9-44.5c0-19.8,8.8-46.2,84.7-46.2c67.8,0,92.8,14.6,103,60.3
		c0.9,4.3,4.8,7.4,9.3,7.4h42.8c2.7,0,5.2-1.1,7-3c1.8-2,2.8-4.6,2.5-7.3c-6.6-78.7-58.9-115.4-164.6-115.4
		c-94.1,0-150.2,39.7-150.2,106.3c0,72.2,55.8,92.2,146.1,101.1c108,10.6,116.4,26.4,116.4,47.6C555,520.8,525.4,536.5,455.9,536.5z
		"/>
</g>
</svg>
