<?xml version="1.0" encoding="utf-8"?>
<!-- Generator: Adobe Illustrator 28.0.0, SVG Export Plug-In . SVG Version: 6.00 Build 0)  -->
<svg version="1.1" id="Calque_1" xmlns="http://www.w3.org/2000/svg" xmlns:xlink="http://www.w3.org/1999/xlink" x="0px" y="0px"
	 viewBox="0 0 604.2 604.2" style="enable-background:new 0 0 604.2 604.2;" xml:space="preserve">
<style type="text/css">
	.st0{fill:#FFFFFF;}
	.st1{fill:none;}
</style>
<g>
	<path class="st0" d="M335.4,439.4h-63.3l-61-100l-60.7,100H90.7l87-133.3L96.4,177.7h61.3l56.3,94.3l54.7-94.3h59.7l-82,130
		L335.4,439.4z"/>
	<path class="st0" d="M390.4,443.1c-21.8,0.7-42.4-9.5-55-27.3c-14.5-22.6-21.5-49.2-20-76c-1.6-27.1,5.5-54,20.3-76.7
		c13-18,34.1-28.4,56.3-27.7c23-0.8,44.8,10.3,57.7,29.3h1.7c-2.5-13.2-3.8-26.6-4-40v-63.7h54.7v278.3h-42l-10.3-25.7h-2.3
		C435.2,433.2,413.4,444.5,390.4,443.1z M409.7,399.7c11.6,1,23-3.6,30.7-12.3c7.7-12.4,11.4-26.8,10.7-41.3v-6c1.3-16-2.2-32-10-46
		c-7.9-10.1-20.5-15.4-33.3-14c-11.5-0.1-22.1,5.7-28.3,15.3c-7.5,13.9-11,29.6-10,45.3c-1.1,15.3,2.4,30.6,10,44
		C386,394.9,397.7,400.6,409.7,399.7L409.7,399.7z"/>
</g>
<path class="st0" d="M535.4,68.7v466.7H68.7V68.7H535.4 M535.4,2.1H68.7C31.9,2.1,2.1,31.9,2.1,68.7v466.7
	c0,36.8,29.8,66.7,66.7,66.7h466.7c36.8,0,66.7-29.8,66.7-66.7V68.7C602.1,31.9,572.2,2.1,535.4,2.1z"/>
<rect x="-97.9" y="-97.9" class="st1" width="800" height="800"/>
</svg>
